<svg id="Layer_1" data-name="Layer 1" xmlns="http://www.w3.org/2000/svg" xmlns:xlink="http://www.w3.org/1999/xlink" viewBox="0 0 213.5 202.33"><defs><style>.cls-1{fill:#252525;}.cls-2{fill:url(#linear-gradient);}.cls-3{fill:#fff;}</style><linearGradient id="linear-gradient" x1="53.42" y1="147.3" x2="220.95" y2="147.3" gradientTransform="matrix(1, 0, 0, -1, 0, 258)" gradientUnits="userSpaceOnUse"><stop offset="0" stop-color="#00aeef"/><stop offset="0.53" stop-color="#00a6d8"/><stop offset="1" stop-color="#0598ba"/></linearGradient></defs><title>BoomCDNWP</title><path class="cls-1" d="M45.57,221.69a6.21,6.21,0,0,1-.78,3.27,6.35,6.35,0,0,1-2.19,2.24,10.28,10.28,0,0,1-3.27,1.32,16.88,16.88,0,0,1-3.9.44H21.54V200.68H37.92a5.69,5.69,0,0,1,2.68.63,7.63,7.63,0,0,1,2,1.66A9.73,9.73,0,0,1,44,205.26a8.12,8.12,0,0,1,.44,2.64,7.71,7.71,0,0,1-1,3.8,6.58,6.58,0,0,1-3,2.73,7.89,7.89,0,0,1,3.85,2.49A7.81,7.81,0,0,1,45.57,221.69ZM29.29,207.26v4.34H34.6a2.54,2.54,0,0,0,1.47-.44,2,2,0,0,0,.63-1.75,2.26,2.26,0,0,0-.54-1.66,1.93,1.93,0,0,0-1.31-.49Zm8.38,12.83a3,3,0,0,0-.53-1.76,1.66,1.66,0,0,0-1.42-.68H29.34v4.73h6.14a2.35,2.35,0,0,0,1.61-.59A2.55,2.55,0,0,0,37.67,220.09Z" transform="translate(-21 -26.96)"/><path class="cls-1" d="M61.71,229.15a13.53,13.53,0,0,1-5.85-1.22,13.74,13.74,0,0,1-4.49-3.26,15.22,15.22,0,0,1-2.92-4.58,14.41,14.41,0,0,1-1-5.32,14.09,14.09,0,0,1,4.09-9.9,14.58,14.58,0,0,1,4.58-3.12,14.23,14.23,0,0,1,5.81-1.17,13.53,13.53,0,0,1,5.85,1.22,13.83,13.83,0,0,1,4.48,3.27,14.15,14.15,0,0,1,2.88,4.63,14.36,14.36,0,0,1,1,5.31,13.55,13.55,0,0,1-1.07,5.37,15,15,0,0,1-3,4.53,13.94,13.94,0,0,1-4.59,3.17A16,16,0,0,1,61.71,229.15Zm-6.39-14.33a10.54,10.54,0,0,0,.39,2.78A8.71,8.71,0,0,0,56.88,220a5.87,5.87,0,0,0,4.88,2.29,6.23,6.23,0,0,0,2.92-.63,5.7,5.7,0,0,0,2-1.71,7.61,7.61,0,0,0,1.17-2.39,10,10,0,0,0,.39-2.73,10.37,10.37,0,0,0-.39-2.78,6.68,6.68,0,0,0-1.21-2.34,5.64,5.64,0,0,0-2-1.61,6.55,6.55,0,0,0-2.83-.63,5.84,5.84,0,0,0-2.88.63,5.72,5.72,0,0,0-2,1.71,7,7,0,0,0-1.17,2.39A7.87,7.87,0,0,0,55.32,214.82Z" transform="translate(-21 -26.96)"/><path class="cls-1" d="M92.18,229.15a13.53,13.53,0,0,1-5.85-1.22,13.81,13.81,0,0,1-4.48-3.26,15.06,15.06,0,0,1-2.93-4.58,14.41,14.41,0,0,1-1-5.32A13.5,13.5,0,0,1,79,209.41a13.78,13.78,0,0,1,3-4.54,14.52,14.52,0,0,1,4.59-3.12,14.14,14.14,0,0,1,5.8-1.17,13.53,13.53,0,0,1,5.85,1.22,13.73,13.73,0,0,1,4.48,3.27,14.15,14.15,0,0,1,2.88,4.63,14.36,14.36,0,0,1,1,5.31,13.55,13.55,0,0,1-1.07,5.37,14.82,14.82,0,0,1-3,4.53A13.94,13.94,0,0,1,98,228.08,16.16,16.16,0,0,1,92.18,229.15Zm-6.43-14.33a10.15,10.15,0,0,0,.39,2.78A8.18,8.18,0,0,0,87.31,220a6,6,0,0,0,2,1.66,6,6,0,0,0,2.87.63,6.3,6.3,0,0,0,2.93-.63,5.79,5.79,0,0,0,2-1.71,8.07,8.07,0,0,0,1.17-2.39,10.41,10.41,0,0,0,.39-2.73,10.78,10.78,0,0,0-.39-2.78,6.88,6.88,0,0,0-1.22-2.34,5.64,5.64,0,0,0-2-1.61,6.51,6.51,0,0,0-2.83-.63,5.8,5.8,0,0,0-2.87.63,5.63,5.63,0,0,0-2,1.71,6.67,6.67,0,0,0-1.17,2.39A9,9,0,0,0,85.75,214.82Z" transform="translate(-21 -26.96)"/><path class="cls-1" d="M131.24,228.91V214l-4.73,10.48h-4.15L117.63,214v14.87h-7.75V200.63h8.48l6.1,13.31,6.14-13.31H139v28.28Z" transform="translate(-21 -26.96)"/><path class="cls-1" d="M151.27,214.58a14.23,14.23,0,0,1,1-5.07,13.93,13.93,0,0,1,2.83-4.49,15.32,15.32,0,0,1,4.53-3.22,14.17,14.17,0,0,1,6.1-1.22,14.33,14.33,0,0,1,7.11,1.71,11.06,11.06,0,0,1,4.49,4.48L171.36,211a4.54,4.54,0,0,0-1.07-1.71,5.13,5.13,0,0,0-1.46-1.07,6.58,6.58,0,0,0-1.66-.54,9.7,9.7,0,0,0-1.66-.14,5.84,5.84,0,0,0-2.88.63,6.13,6.13,0,0,0-2,1.71,6.71,6.71,0,0,0-1.17,2.38,9.64,9.64,0,0,0-.39,2.64,9.27,9.27,0,0,0,.43,2.82,8.28,8.28,0,0,0,1.27,2.39,6.09,6.09,0,0,0,4.78,2.3,5.92,5.92,0,0,0,1.61-.2,7.43,7.43,0,0,0,1.61-.58,6.37,6.37,0,0,0,1.41-1.08,5.33,5.33,0,0,0,1-1.61l6.33,3.81a8.13,8.13,0,0,1-1.95,2.78,12.07,12.07,0,0,1-2.92,2,16.71,16.71,0,0,1-3.56,1.27,16.54,16.54,0,0,1-3.71.44,13.27,13.27,0,0,1-5.75-1.27,14.87,14.87,0,0,1-7.41-8A18.57,18.57,0,0,1,151.27,214.58Z" transform="translate(-21 -26.96)"/><path class="cls-1" d="M180.33,228.91V200.63h10.88a16.35,16.35,0,0,1,6.19,1.12,12.56,12.56,0,0,1,4.43,3,13.42,13.42,0,0,1,2.73,4.48,15.55,15.55,0,0,1,.93,5.46,16,16,0,0,1-1,5.85,12.77,12.77,0,0,1-2.88,4.44,13.48,13.48,0,0,1-4.49,2.88,16,16,0,0,1-5.85,1Zm17.26-14.14a9.26,9.26,0,0,0-.44-3,6.47,6.47,0,0,0-1.26-2.29,6.17,6.17,0,0,0-2-1.52,6.78,6.78,0,0,0-2.68-.53h-3.13v14.72h3.13a7,7,0,0,0,2.73-.53,5.64,5.64,0,0,0,2-1.56,6.67,6.67,0,0,0,1.22-2.35A9.48,9.48,0,0,0,197.59,214.77Z" transform="translate(-21 -26.96)"/><path class="cls-1" d="M216.61,215v13.9h-7.76V200.63h6.05L226.26,215V200.63H234v28.28h-6.19Z" transform="translate(-21 -26.96)"/><rect class="cls-1" x="171.47" y="72.11" width="8.68" height="8.92"/><path class="cls-2" d="M123.58,194.44s-42.66-42-70.16-50.56V27s43,14.88,70.16,36.33c0,0,38.23-27.79,70.79-36.33v29.4H183.31V67.72h8.24V79.08h18.33v12H221v11.07H209.59V91.27H186.82V102H175.55v11.26h30.33v11.9H194.62v17.36C194.57,142.61,155.17,162.12,123.58,194.44Z" transform="translate(-21 -26.96)"/><path class="cls-1" d="M92,177.91s-38.57-24.42-71-23.16V29.16S37.87,31.26,44.6,38V148.8S77.46,162.7,92,177.91Z" transform="translate(-21 -26.96)"/><path class="cls-1" d="M155,177.91s45.93-26.13,71-22.52V130.72H203.64v17.69S169.7,164.21,155,177.91Z" transform="translate(-21 -26.96)"/><rect class="cls-1" x="173.37" y="29.4" width="11.56" height="11.85"/><rect class="cls-1" x="195.7" y="29.4" width="11.56" height="11.85"/><rect class="cls-1" x="201.94" y="41.25" width="11.56" height="11.85"/><rect class="cls-1" x="195.7" y="86.25" width="11.56" height="11.85"/><rect class="cls-1" x="143.44" y="58.12" width="11.56" height="11.85"/><rect class="cls-1" x="150.36" y="97.8" width="11.56" height="11.85"/><path class="cls-3" d="M143.77,125.89v13.55a5.19,5.19,0,0,1-1.42,3.61c-5.07,4.54-11.11-1.07-11.11-1.07H126c2.24,7,8.82,8.09,11.75,8.29a2.28,2.28,0,0,0,.58,0h.93a10.92,10.92,0,0,0,9.95-10.83V127l7.36-7.36a2.65,2.65,0,0,0,0-3.8l-7.36-7.37V96a10.89,10.89,0,0,0-10.88-10.87,2.59,2.59,0,0,0-2.73,2.73,2.56,2.56,0,0,0,2.73,2.73A5.44,5.44,0,0,1,143.77,96v13.61a2.47,2.47,0,0,0,.83,1.9l6.24,6.24L144.55,124A2.41,2.41,0,0,0,143.77,125.89Z" transform="translate(-21 -26.96)"/><path class="cls-3" d="M102.91,125.89v13.55a5.23,5.23,0,0,0,1.41,3.61c5.07,4.54,11.12-1.07,11.12-1.07h5.22c-2.25,7-8.83,8.09-11.75,8.29a2.35,2.35,0,0,1-.59,0h-.93a10.92,10.92,0,0,1-9.94-10.83V127l-7.36-7.36a2.63,2.63,0,0,1,0-3.8l7.36-7.37V96a10.88,10.88,0,0,1,10.87-10.87,2.73,2.73,0,1,1,0,5.46A5.43,5.43,0,0,0,102.91,96v13.61a2.47,2.47,0,0,1-.83,1.9l-6.24,6.24,6.24,6.24A2.29,2.29,0,0,1,102.91,125.89Z" transform="translate(-21 -26.96)"/><path class="cls-3" d="M130.94,133.2s5,2.39,0,5.61H116.07s-5.36-2.58,0-5.61c0,0-2.39-15.89-9.26-23.84l14.53-17.6V121.4H125V91.76l14.78,17.7C139.91,109.41,131.53,126.18,130.94,133.2Z" transform="translate(-21 -26.96)"/></svg>